<?xml version="1.0" standalone="no"?>
<!DOCTYPE svg PUBLIC "-//W3C//DTD SVG 20010904//EN"
 "http://www.w3.org/TR/2001/REC-SVG-20010904/DTD/svg10.dtd">
<svg version="1.0" xmlns="http://www.w3.org/2000/svg"
 width="512.000000pt" height="512.000000pt" viewBox="0 0 512.000000 512.000000"
 preserveAspectRatio="xMidYMid meet">
<metadata>
Created by potrace 1.11, written by Peter Selinger 2001-2013
</metadata>
<g transform="translate(0.000000,512.000000) scale(0.100000,-0.100000)"
fill="#000000" stroke="none">
<path d="M3388 5099 c-204 -35 -396 -113 -583 -237 -83 -55 -157 -123 -440
-404 -187 -186 -362 -365 -390 -399 -121 -147 -218 -323 -276 -504 l-32 -100
-116 -38 c-140 -46 -243 -96 -376 -184 -85 -56 -153 -119 -461 -427 -346 -346
-416 -424 -510 -576 -86 -136 -153 -326 -190 -530 -13 -76 -13 -336 1 -431 45
-312 189 -598 413 -824 238 -240 504 -375 852 -431 74 -12 330 -11 411 2 302
48 551 164 773 360 144 127 681 677 740 756 95 130 185 316 231 480 14 51 19
57 48 63 170 36 449 181 588 305 32 29 615 609 659 657 189 201 320 469 369
752 26 147 22 416 -8 549 -65 292 -199 539 -402 742 -196 195 -429 329 -689
395 -135 34 -156 36 -340 40 -126 2 -190 -2 -272 -16z m453 -705 c269 -72 473
-276 551 -551 29 -102 32 -295 5 -393 -21 -76 -73 -190 -118 -257 -39 -59
-612 -638 -689 -697 -63 -48 -126 -86 -143 -86 -7 0 -25 40 -41 88 -34 104
-117 266 -187 367 -172 249 -454 457 -752 555 l-68 22 27 46 c15 26 44 70 65
97 53 70 633 648 694 691 185 131 437 177 656 118z m-2131 -1759 c143 -428
502 -789 927 -929 95 -31 93 -22 20 -131 -50 -73 -8 -29 -352 -375 -311 -313
-365 -361 -471 -414 -124 -61 -203 -80 -349 -80 -156 -1 -241 20 -377 91 -315
166 -475 538 -381 887 23 88 68 181 124 260 28 38 458 476 615 626 72 68 204
156 214 142 4 -4 17 -38 30 -77z m846 -67 l29 -33 -32 29 c-31 28 -38 36 -30
36 2 0 16 -15 33 -32z"/>
</g>
</svg>
